<svg xmlns="http://www.w3.org/2000/svg" viewBox="0 0 800 600"><defs><linearGradient id="eldritch" x1="0%" x2="100%" y1="0%" y2="100%"><stop offset="0%" style="stop-color:#1a4d2e;stop-opacity:1"/><stop offset="50%" style="stop-color:#0d2818;stop-opacity:1"/><stop offset="100%" style="stop-color:#000;stop-opacity:1"/></linearGradient><pattern id="oldPaper" width="100" height="100" patternUnits="userSpaceOnUse"><path fill="#0a0a0a" d="M0 0h100v100H0z"/><circle cx="20" cy="30" r="1" fill="#1a1a1a" opacity=".3"/><circle cx="60" cy="70" r="1" fill="#1a1a1a" opacity=".3"/><circle cx="80" cy="20" r="1" fill="#1a1a1a" opacity=".3"/></pattern><filter id="glow"><feGaussianBlur result="coloredBlur" stdDeviation="4"/><feMerge><feMergeNode in="coloredBlur"/><feMergeNode in="SourceGraphic"/></feMerge></filter></defs><path fill="url(#oldPaper)" d="M0 0h800v600H0z"/><path fill="none" stroke="#0f3d2a" stroke-width="15" d="M0 300q100-50 150 0t150 20" opacity=".3"/><path fill="none" stroke="#0f3d2a" stroke-width="12" d="M800 200q-100-20-150 20t-150 20" opacity=".3"/><path fill="none" stroke="#0f3d2a" stroke-width="10" d="M100 600q50-100 100-80t100 30" opacity=".3"/><g transform="translate(250 150)"><rect width="300" height="280" x="5" y="5" opacity=".4" rx="5"/><rect width="300" height="280" fill="#1a1a1a" stroke="#2d4a2e" stroke-width="3" rx="5"/><rect width="280" height="260" x="10" y="10" fill="url(#eldritch)" stroke="#3d5a3e" stroke-width="2" rx="3"/><ellipse cx="150" cy="80" fill="#0a0a0a" stroke="#4a7c59" stroke-width="2" filter="url(#glow)" rx="50" ry="30"/><circle cx="150" cy="80" r="20" fill="#2d5a3d" filter="url(#glow)"/><circle cx="150" cy="80" r="12" fill="#1a3d2a"/><circle cx="155" cy="75" r="5" fill="#4a7c59" filter="url(#glow)"/><path fill="none" stroke="#4a7c59" stroke-width="2" d="M150 110q-20 20-30 40m30-40q0 25 5 45m-5-45q20 20 30 40" opacity=".6"/><text x="150" y="190" fill="#4a7c59" filter="url(#glow)" font-family="serif" font-size="24" font-weight="bold" text-anchor="middle">AI PAPERS</text><text x="150" y="215" fill="#3d5a3e" font-family="serif" font-size="14" style="font-style:italic" text-anchor="middle">Arcane Knowledge</text><text x="150" y="240" fill="#2d4a2e" font-family="serif" font-size="11" text-anchor="middle">Transformers · Attention</text><text x="150" y="255" fill="#2d4a2e" font-family="serif" font-size="11" text-anchor="middle">Neural Networks · Deep Learning</text></g><g opacity=".5"><circle cx="100" cy="100" r="30" fill="none" stroke="#4a7c59" stroke-width="1.5"/><circle cx="100" cy="100" r="25" fill="none" stroke="#4a7c59" stroke-dasharray="5,5"/><text x="100" y="105" fill="#4a7c59" font-family="serif" font-size="20" text-anchor="middle">∑</text><circle cx="700" cy="120" r="30" fill="none" stroke="#4a7c59" stroke-width="1.5"/><circle cx="700" cy="120" r="25" fill="none" stroke="#4a7c59" stroke-dasharray="5,5"/><text x="700" y="125" fill="#4a7c59" font-family="serif" font-size="20" text-anchor="middle">∞</text><circle cx="150" cy="500" r="30" fill="none" stroke="#4a7c59" stroke-width="1.5"/><circle cx="150" cy="500" r="25" fill="none" stroke="#4a7c59" stroke-dasharray="5,5"/><text x="150" y="505" fill="#4a7c59" font-family="serif" font-size="20" text-anchor="middle">Ω</text><circle cx="680" cy="480" r="30" fill="none" stroke="#4a7c59" stroke-width="1.5"/><circle cx="680" cy="480" r="25" fill="none" stroke="#4a7c59" stroke-dasharray="5,5"/><text x="680" y="485" fill="#4a7c59" font-family="serif" font-size="20" text-anchor="middle">λ</text></g><g opacity=".6"><path fill="none" stroke="#2d5a3d" stroke-width="8" d="M400 50q20-30 50-20 20 5 30 30"/><path fill="none" stroke="#2d5a3d" stroke-width="6" d="M380 40q10-30 30-20 10 5 15 30"/><circle cx="480" cy="60" r="5" fill="#4a7c59" filter="url(#glow)"/><circle cx="425" cy="50" r="4" fill="#4a7c59" filter="url(#glow)"/></g><text x="400" y="550" fill="#3d5a3e" font-family="serif" font-size="16" opacity=".7" style="font-style:italic" text-anchor="middle">&quot;Implementando los secretos prohibidos</text><text x="400" y="575" fill="#3d5a3e" font-family="serif" font-size="16" opacity=".7" style="font-style:italic" text-anchor="middle">de las redes neuronales ancestrales&quot;</text></svg>